<?xml version="1.0" encoding="UTF-8"?>
<!DOCTYPE svg PUBLIC "-//W3C//DTD SVG 1.1//EN" "http://www.w3.org/Graphics/SVG/1.1/DTD/svg11.dtd">
<svg xmlns="http://www.w3.org/2000/svg" version="1.1" width="512px" height="512px" style="shape-rendering:geometricPrecision; text-rendering:geometricPrecision; image-rendering:optimizeQuality; fill-rule:evenodd; clip-rule:evenodd" xmlns:xlink="http://www.w3.org/1999/xlink">
<g><path style="opacity:1" fill="#fefefe" d="M 229.5,15.5 C 312.405,9.40088 381.905,36.7342 438,97.5C 493.049,165.396 509.049,241.73 486,326.5C 451.969,422.191 384.802,478.358 284.5,495C 193.042,502.67 118.875,470.837 62,399.5C 9.24251,323.047 0.575843,241.713 36,155.5C 75.98,75.03 140.48,28.3634 229.5,15.5 Z"/></g>
<g><path style="opacity:1" fill="#1ed778" d="M 172.5,93.5 C 168.854,97.8123 164.854,101.812 160.5,105.5C 159.056,104.019 158.389,104.352 158.5,106.5C 153.5,101.833 148.5,97.1667 143.5,92.5C 146.381,88.3928 150.381,86.3928 155.5,86.5C 160.075,86.7469 164.408,87.9135 168.5,90C 170.324,90.66 171.657,91.8267 172.5,93.5 Z"/></g>
<g><path style="opacity:1" fill="#02c4fe" d="M 143.5,92.5 C 148.5,97.1667 153.5,101.833 158.5,106.5C 166.5,115.167 174.833,123.5 183.5,131.5C 189.833,138.5 196.5,145.167 203.5,151.5C 238.5,187.167 273.833,222.5 309.5,257.5C 309.5,257.833 309.5,258.167 309.5,258.5C 301.833,265.833 294.167,273.167 286.5,280.5C 286.5,279.833 286.5,279.167 286.5,278.5C 287.96,276.537 289.627,274.704 291.5,273C 289.396,272.209 288.063,270.709 287.5,268.5C 282.427,262.802 276.76,257.802 270.5,253.5C 258.833,241.333 247.167,229.167 235.5,217C 232.667,216.833 231.167,215.333 231,212.5C 229.255,211.044 227.422,209.711 225.5,208.5C 220.8,202.631 215.8,196.964 210.5,191.5C 207.799,188.947 204.799,186.78 201.5,185C 200.393,181.392 198.06,178.892 194.5,177.5C 187.407,169.451 180.074,161.618 172.5,154C 169.667,153.833 168.167,152.333 168,149.5C 158.774,140.705 149.774,131.705 141,122.5C 141.094,126.633 140.26,130.299 138.5,133.5C 138.5,123.167 138.5,112.833 138.5,102.5C 138.592,98.3159 140.259,94.9826 143.5,92.5 Z"/></g>
<g><path style="opacity:1" fill="#10e276" d="M 172.5,93.5 C 173.873,93.3433 175.207,93.51 176.5,94C 183.712,99.1069 191.379,103.44 199.5,107C 202.02,108.697 204.353,110.53 206.5,112.5C 204.304,112.565 202.304,113.232 200.5,114.5C 195.499,119.668 190.666,125.001 186,130.5C 183.145,127.678 182.311,128.011 183.5,131.5C 174.833,123.5 166.5,115.167 158.5,106.5C 158.389,104.352 159.056,104.019 160.5,105.5C 164.854,101.812 168.854,97.8123 172.5,93.5 Z"/></g>
<g><path style="opacity:1" fill="#0bea77" d="M 206.5,112.5 C 212.151,114.741 217.651,117.408 223,120.5C 225.333,122.068 227.5,123.735 229.5,125.5C 224.086,125.738 220.753,128.405 219.5,133.5C 217.692,133.491 216.025,133.991 214.5,135C 213.18,139.16 210.513,141.66 206.5,142.5C 205.514,145.493 204.514,148.493 203.5,151.5C 196.5,145.167 189.833,138.5 183.5,131.5C 182.311,128.011 183.145,127.678 186,130.5C 190.666,125.001 195.499,119.668 200.5,114.5C 202.304,113.232 204.304,112.565 206.5,112.5 Z"/></g>
<g><path style="opacity:1" fill="#00caff" d="M 286.5,278.5 C 281.468,283.201 276.468,287.868 271.5,292.5C 267.355,289.101 263.688,285.267 260.5,281C 254.535,278.694 250.868,274.527 249.5,268.5C 245.307,268.638 242.973,266.638 242.5,262.5C 241.167,262.5 239.833,262.5 238.5,262.5C 237.833,260.5 237.167,258.5 236.5,256.5C 231.878,256.545 229.545,254.212 229.5,249.5C 227.692,249.509 226.025,249.009 224.5,248C 222.992,244.74 220.658,242.24 217.5,240.5C 216.571,239.311 216.238,237.978 216.5,236.5C 215.448,236.649 214.448,236.483 213.5,236C 211.821,233.799 209.821,231.966 207.5,230.5C 206.014,228.698 205.014,226.698 204.5,224.5C 200.422,224.74 198.256,222.74 198,218.5C 194.818,217.595 192.818,215.595 192,212.5C 190.027,211.36 188.193,210.027 186.5,208.5C 179.506,201.713 172.839,194.546 166.5,187C 163.388,186.375 161.555,184.542 161,181.5C 153.701,175.534 147.034,168.867 141,161.5C 140.667,163.833 140.333,166.167 140,168.5C 139.617,169.056 139.117,169.389 138.5,169.5C 138.5,157.5 138.5,145.5 138.5,133.5C 140.26,130.299 141.094,126.633 141,122.5C 149.774,131.705 158.774,140.705 168,149.5C 168.167,152.333 169.667,153.833 172.5,154C 180.074,161.618 187.407,169.451 194.5,177.5C 198.06,178.892 200.393,181.392 201.5,185C 204.799,186.78 207.799,188.947 210.5,191.5C 215.8,196.964 220.8,202.631 225.5,208.5C 227.422,209.711 229.255,211.044 231,212.5C 231.167,215.333 232.667,216.833 235.5,217C 247.167,229.167 258.833,241.333 270.5,253.5C 276.76,257.802 282.427,262.802 287.5,268.5C 288.063,270.709 289.396,272.209 291.5,273C 289.627,274.704 287.96,276.537 286.5,278.5 Z"/></g>
<g><path style="opacity:1" fill="#05ef76" d="M 229.5,125.5 C 233.556,127.025 237.556,128.859 241.5,131C 282.723,155.064 324.057,178.897 365.5,202.5C 364.167,203.167 363.167,204.167 362.5,205.5C 355.167,212.167 348.167,219.167 341.5,226.5C 330.833,236.833 320.167,247.167 309.5,257.5C 273.833,222.5 238.5,187.167 203.5,151.5C 204.514,148.493 205.514,145.493 206.5,142.5C 210.513,141.66 213.18,139.16 214.5,135C 216.025,133.991 217.692,133.491 219.5,133.5C 220.753,128.405 224.086,125.738 229.5,125.5 Z"/></g>
<g><path style="opacity:1" fill="#01d1fe" d="M 286.5,278.5 C 286.5,279.167 286.5,279.833 286.5,280.5C 283.833,283.5 281.167,286.5 278.5,289.5C 274.167,293.5 269.833,297.5 265.5,301.5C 264.07,301.421 262.736,301.754 261.5,302.5C 257.833,306.833 253.833,310.833 249.5,314.5C 248.41,313.609 248.41,312.609 249.5,311.5C 248.311,310.571 246.978,310.238 245.5,310.5C 245.141,306.07 242.807,303.737 238.5,303.5C 238.5,299.5 236.5,297.5 232.5,297.5C 231.956,295.42 231.122,293.42 230,291.5C 228.989,290.663 227.822,290.33 226.5,290.5C 226.5,289.5 226.5,288.5 226.5,287.5C 224.5,286.833 222.5,286.167 220.5,285.5C 220.762,284.022 220.429,282.689 219.5,281.5C 217.698,280.014 215.698,279.014 213.5,278.5C 213.5,274.5 211.5,272.5 207.5,272.5C 207.263,268.193 204.93,265.859 200.5,265.5C 199.716,260.711 197.05,257.378 192.5,255.5C 191.614,254.675 191.281,253.675 191.5,252.5C 190.5,252.5 189.5,252.5 188.5,252.5C 188.67,251.178 188.337,250.011 187.5,249C 185.58,247.878 183.58,247.044 181.5,246.5C 181.5,242.5 179.5,240.5 175.5,240.5C 175.762,239.022 175.429,237.689 174.5,236.5C 173.049,234.441 171.049,233.441 168.5,233.5C 167.389,229.042 164.723,225.709 160.5,223.5C 159.614,222.675 159.281,221.675 159.5,220.5C 156.747,219.286 154.08,217.786 151.5,216C 150.348,212.571 148.014,210.238 144.5,209C 143.884,206.821 142.717,204.988 141,203.5C 140.415,208.511 139.749,213.511 139,218.5C 138.5,202.17 138.333,185.837 138.5,169.5C 139.117,169.389 139.617,169.056 140,168.5C 140.333,166.167 140.667,163.833 141,161.5C 147.034,168.867 153.701,175.534 161,181.5C 161.555,184.542 163.388,186.375 166.5,187C 172.839,194.546 179.506,201.713 186.5,208.5C 188.193,210.027 190.027,211.36 192,212.5C 192.818,215.595 194.818,217.595 198,218.5C 198.256,222.74 200.422,224.74 204.5,224.5C 205.014,226.698 206.014,228.698 207.5,230.5C 209.821,231.966 211.821,233.799 213.5,236C 214.448,236.483 215.448,236.649 216.5,236.5C 216.238,237.978 216.571,239.311 217.5,240.5C 220.658,242.24 222.992,244.74 224.5,248C 226.025,249.009 227.692,249.509 229.5,249.5C 229.545,254.212 231.878,256.545 236.5,256.5C 237.167,258.5 237.833,260.5 238.5,262.5C 239.833,262.5 241.167,262.5 242.5,262.5C 242.973,266.638 245.307,268.638 249.5,268.5C 250.868,274.527 254.535,278.694 260.5,281C 263.688,285.267 267.355,289.101 271.5,292.5C 276.468,287.868 281.468,283.201 286.5,278.5 Z"/></g>
<g><path style="opacity:1" fill="#06d7fe" d="M 138.5,102.5 C 138.5,112.833 138.5,123.167 138.5,133.5C 138.5,145.5 138.5,157.5 138.5,169.5C 138.333,185.837 138.5,202.17 139,218.5C 139.749,213.511 140.415,208.511 141,203.5C 142.717,204.988 143.884,206.821 144.5,209C 148.014,210.238 150.348,212.571 151.5,216C 154.08,217.786 156.747,219.286 159.5,220.5C 159.281,221.675 159.614,222.675 160.5,223.5C 164.723,225.709 167.389,229.042 168.5,233.5C 171.049,233.441 173.049,234.441 174.5,236.5C 175.429,237.689 175.762,239.022 175.5,240.5C 179.5,240.5 181.5,242.5 181.5,246.5C 183.58,247.044 185.58,247.878 187.5,249C 188.337,250.011 188.67,251.178 188.5,252.5C 189.5,252.5 190.5,252.5 191.5,252.5C 191.281,253.675 191.614,254.675 192.5,255.5C 197.05,257.378 199.716,260.711 200.5,265.5C 204.93,265.859 207.263,268.193 207.5,272.5C 211.5,272.5 213.5,274.5 213.5,278.5C 215.698,279.014 217.698,280.014 219.5,281.5C 220.429,282.689 220.762,284.022 220.5,285.5C 222.5,286.167 224.5,286.833 226.5,287.5C 226.5,288.5 226.5,289.5 226.5,290.5C 227.822,290.33 228.989,290.663 230,291.5C 231.122,293.42 231.956,295.42 232.5,297.5C 236.5,297.5 238.5,299.5 238.5,303.5C 242.807,303.737 245.141,306.07 245.5,310.5C 246.978,310.238 248.311,310.571 249.5,311.5C 248.41,312.609 248.41,313.609 249.5,314.5C 253.833,310.833 257.833,306.833 261.5,302.5C 262.736,301.754 264.07,301.421 265.5,301.5C 262.5,304.833 259.5,308.167 256.5,311.5C 248.5,319.167 240.5,326.833 232.5,334.5C 231.022,334.238 229.689,334.571 228.5,335.5C 227.5,337.167 226.167,338.5 224.5,339.5C 221.964,336.712 219.631,333.712 217.5,330.5C 212.636,325.261 207.303,320.594 201.5,316.5C 196.07,311.184 191.07,305.517 186.5,299.5C 181.184,294.07 175.517,289.07 169.5,284.5C 160.785,273.87 151.285,263.87 141,254.5C 141.053,257.675 140.22,260.342 138.5,262.5C 137.69,209.838 137.356,157.171 137.5,104.5C 137.328,103.508 137.662,102.842 138.5,102.5 Z"/></g>
<g><path style="opacity:1" fill="#feca02" d="M 365.5,202.5 C 373.988,206.001 381.988,210.334 389.5,215.5C 389.561,217.592 390.561,219.092 392.5,220C 391.551,220.617 390.718,220.451 390,219.5C 389.667,244.833 389.333,270.167 389,295.5C 387.307,297.604 385.14,299.104 382.5,300C 383.448,300.483 384.448,300.649 385.5,300.5C 381.904,303.228 377.904,305.395 373.5,307C 372.177,307.816 371.511,308.983 371.5,310.5C 369.819,312.008 367.819,313.008 365.5,313.5C 364.833,313.5 364.5,313.167 364.5,312.5C 364.67,311.178 364.337,310.011 363.5,309C 367.107,309.592 367.274,308.759 364,306.5C 363.174,273.125 363.341,239.792 364.5,206.5C 364.043,205.702 363.376,205.369 362.5,205.5C 363.167,204.167 364.167,203.167 365.5,202.5 Z"/></g>
<g><path style="opacity:1" fill="#fec400" d="M 362.5,205.5 C 363.376,205.369 364.043,205.702 364.5,206.5C 363.341,239.792 363.174,273.125 364,306.5C 367.274,308.759 367.107,309.592 363.5,309C 364.337,310.011 364.67,311.178 364.5,312.5C 358.248,306.915 352.248,300.915 346.5,294.5C 345.26,290.516 342.926,287.349 339.5,285C 339.373,267.313 339.54,249.48 340,231.5C 341.353,230.315 342.52,228.981 343.5,227.5C 343.043,226.702 342.376,226.369 341.5,226.5C 348.167,219.167 355.167,212.167 362.5,205.5 Z"/></g>
<g><path style="opacity:1" fill="#fed102" d="M 389.5,215.5 C 396.6,219.935 403.933,223.935 411.5,227.5C 411.5,227.833 411.5,228.167 411.5,228.5C 411.461,229.756 411.961,230.756 413,231.5C 413.833,248.51 413.666,265.51 412.5,282.5C 410.695,283.472 409.028,284.639 407.5,286C 408.448,286.483 409.448,286.649 410.5,286.5C 402.209,291.098 393.875,295.764 385.5,300.5C 384.448,300.649 383.448,300.483 382.5,300C 385.14,299.104 387.307,297.604 389,295.5C 389.333,270.167 389.667,244.833 390,219.5C 390.718,220.451 391.551,220.617 392.5,220C 390.561,219.092 389.561,217.592 389.5,215.5 Z"/></g>
<g><path style="opacity:1" fill="#fdbe02" d="M 341.5,226.5 C 342.376,226.369 343.043,226.702 343.5,227.5C 342.52,228.981 341.353,230.315 340,231.5C 339.54,249.48 339.373,267.313 339.5,285C 342.926,287.349 345.26,290.516 346.5,294.5C 334.146,282.479 321.813,270.479 309.5,258.5C 309.5,258.167 309.5,257.833 309.5,257.5C 320.167,247.167 330.833,236.833 341.5,226.5 Z"/></g>
<g><path style="opacity:1" fill="#feefa8" d="M 411.5,228.5 C 411.5,228.167 411.5,227.833 411.5,227.5C 413.027,227.427 414.027,228.094 414.5,229.5C 413.391,229.443 412.391,229.11 411.5,228.5 Z"/></g>
<g><path style="opacity:1" fill="#fed808" d="M 411.5,228.5 C 412.391,229.11 413.391,229.443 414.5,229.5C 424.337,234.344 433.504,240.344 442,247.5C 447.903,258.066 445.737,266.733 435.5,273.5C 426.9,277.46 418.567,281.794 410.5,286.5C 409.448,286.649 408.448,286.483 407.5,286C 409.028,284.639 410.695,283.472 412.5,282.5C 413.666,265.51 413.833,248.51 413,231.5C 411.961,230.756 411.461,229.756 411.5,228.5 Z"/></g>
<g><path style="opacity:1" fill="#02ddfe" d="M 232.5,334.5 C 230.5,336.833 228.5,339.167 226.5,341.5C 217.833,349.5 209.5,357.833 201.5,366.5C 197.167,370.5 192.833,374.5 188.5,378.5C 187.07,378.421 185.736,378.754 184.5,379.5C 184.167,378.167 183.833,376.833 183.5,375.5C 181.476,372.794 178.81,371.461 175.5,371.5C 174.514,368.507 173.514,365.507 172.5,362.5C 169.715,362.067 167.381,360.734 165.5,358.5C 157.333,350.034 149.167,341.701 141,333.5C 140.832,342.186 140.332,350.852 139.5,359.5C 138.5,327.174 138.167,294.84 138.5,262.5C 140.22,260.342 141.053,257.675 141,254.5C 151.285,263.87 160.785,273.87 169.5,284.5C 175.517,289.07 181.184,294.07 186.5,299.5C 191.07,305.517 196.07,311.184 201.5,316.5C 207.303,320.594 212.636,325.261 217.5,330.5C 219.631,333.712 221.964,336.712 224.5,339.5C 226.167,338.5 227.5,337.167 228.5,335.5C 229.689,334.571 231.022,334.238 232.5,334.5 Z"/></g>
<g><path style="opacity:1" fill="#fa3845" d="M 309.5,258.5 C 321.813,270.479 334.146,282.479 346.5,294.5C 352.248,300.915 358.248,306.915 364.5,312.5C 364.5,313.167 364.833,313.5 365.5,313.5C 352.665,321.085 339.665,328.419 326.5,335.5C 323.84,336.347 321.174,336.847 318.5,337C 321.033,335.967 322.699,334.133 323.5,331.5C 309.351,318.438 295.684,304.938 282.5,291C 279.9,291.466 277.734,292.966 276,295.5C 276.483,293.463 277.316,291.463 278.5,289.5C 281.167,286.5 283.833,283.5 286.5,280.5C 294.167,273.167 301.833,265.833 309.5,258.5 Z"/></g>
<g><path style="opacity:1" fill="#f53448" d="M 278.5,289.5 C 277.316,291.463 276.483,293.463 276,295.5C 277.734,292.966 279.9,291.466 282.5,291C 295.684,304.938 309.351,318.438 323.5,331.5C 322.699,334.133 321.033,335.967 318.5,337C 321.174,336.847 323.84,336.347 326.5,335.5C 316.892,341.644 306.892,347.31 296.5,352.5C 294.095,352.866 291.762,353.533 289.5,354.5C 287.5,354 285.5,353.5 283.5,353C 279.661,349.869 276.327,346.202 273.5,342C 270.667,341.833 269.167,340.333 269,337.5C 267.255,336.044 265.422,334.711 263.5,333.5C 259.007,328.208 254.674,323.375 250.5,319C 253.087,316.919 255.087,314.419 256.5,311.5C 259.5,308.167 262.5,304.833 265.5,301.5C 269.833,297.5 274.167,293.5 278.5,289.5 Z"/></g>
<g><path style="opacity:1" fill="#eac125" d="M 435.5,273.5 C 414.529,286.323 393.196,298.657 371.5,310.5C 371.511,308.983 372.177,307.816 373.5,307C 377.904,305.395 381.904,303.228 385.5,300.5C 393.875,295.764 402.209,291.098 410.5,286.5C 418.567,281.794 426.9,277.46 435.5,273.5 Z"/></g>
<g><path style="opacity:1" fill="#ef304a" d="M 256.5,311.5 C 255.087,314.419 253.087,316.919 250.5,319C 254.674,323.375 259.007,328.208 263.5,333.5C 265.422,334.711 267.255,336.044 269,337.5C 269.167,340.333 270.667,341.833 273.5,342C 276.327,346.202 279.661,349.869 283.5,353C 285.5,353.5 287.5,354 289.5,354.5C 291.762,353.533 294.095,352.866 296.5,352.5C 279.67,362.416 262.67,372.083 245.5,381.5C 239.609,381.395 239.275,380.395 244.5,378.5C 245.149,374.939 243.482,372.772 239.5,372C 238.572,368.236 236.239,366.07 232.5,365.5C 232.649,364.448 232.483,363.448 232,362.5C 227.487,358.986 223.653,354.819 220.5,350C 222.167,347 224.5,344.667 227.5,343C 226.944,342.617 226.611,342.117 226.5,341.5C 228.5,339.167 230.5,336.833 232.5,334.5C 240.5,326.833 248.5,319.167 256.5,311.5 Z"/></g>
<g><path style="opacity:1" fill="#37e2fd" d="M 137.5,104.5 C 137.356,157.171 137.69,209.838 138.5,262.5C 138.167,294.84 138.5,327.174 139.5,359.5C 140.332,350.852 140.832,342.186 141,333.5C 149.167,341.701 157.333,350.034 165.5,358.5C 167.381,360.734 169.715,362.067 172.5,362.5C 173.514,365.507 174.514,368.507 175.5,371.5C 178.81,371.461 181.476,372.794 183.5,375.5C 183.833,376.833 184.167,378.167 184.5,379.5C 185.736,378.754 187.07,378.421 188.5,378.5C 182.833,384.5 177.167,390.5 171.5,396.5C 162.167,405.167 153.167,414.167 144.5,423.5C 143.504,423.586 142.671,423.252 142,422.5C 139.938,418.312 138.271,413.979 137,409.5C 136.167,307.666 136.334,205.999 137.5,104.5 Z"/></g>
<g><path style="opacity:1" fill="#ea2d4d" d="M 226.5,341.5 C 226.611,342.117 226.944,342.617 227.5,343C 224.5,344.667 222.167,347 220.5,350C 223.653,354.819 227.487,358.986 232,362.5C 232.483,363.448 232.649,364.448 232.5,365.5C 236.239,366.07 238.572,368.236 239.5,372C 243.482,372.772 245.149,374.939 244.5,378.5C 239.275,380.395 239.609,381.395 245.5,381.5C 238.869,385.485 232.202,389.485 225.5,393.5C 225.158,392.662 224.492,392.328 223.5,392.5C 219.398,387.616 215.064,382.95 210.5,378.5C 207.386,375.05 203.72,372.383 199.5,370.5C 200.63,369.378 201.297,368.044 201.5,366.5C 209.5,357.833 217.833,349.5 226.5,341.5 Z"/></g>
<g><path style="opacity:1" fill="#e62950" d="M 201.5,366.5 C 201.297,368.044 200.63,369.378 199.5,370.5C 203.72,372.383 207.386,375.05 210.5,378.5C 215.064,382.95 219.398,387.616 223.5,392.5C 221.412,393.939 219.079,394.606 216.5,394.5C 216.719,395.675 216.386,396.675 215.5,397.5C 212.339,398.913 209.339,400.58 206.5,402.5C 205.497,400.458 204.163,400.125 202.5,401.5C 201.756,402.991 201.09,404.491 200.5,406C 197.899,406.92 195.232,407.587 192.5,408C 192.957,408.414 193.291,408.914 193.5,409.5C 191.713,410.316 190.046,411.316 188.5,412.5C 186.833,411.833 185.167,411.167 183.5,410.5C 182.273,407.105 179.94,404.939 176.5,404C 175.182,401.176 173.515,398.676 171.5,396.5C 177.167,390.5 182.833,384.5 188.5,378.5C 192.833,374.5 197.167,370.5 201.5,366.5 Z"/></g>
<g><path style="opacity:1" fill="#de2751" d="M 223.5,392.5 C 224.492,392.328 225.158,392.662 225.5,393.5C 219.527,396.821 213.527,400.155 207.5,403.5C 205.973,403.427 204.973,404.094 204.5,405.5C 203.167,406.167 201.833,406.833 200.5,407.5C 198.973,407.427 197.973,408.094 197.5,409.5C 186.307,415.844 174.974,422.011 163.5,428C 158.833,428.667 154.167,428.667 149.5,428C 147.34,427.004 145.673,425.504 144.5,423.5C 153.167,414.167 162.167,405.167 171.5,396.5C 173.515,398.676 175.182,401.176 176.5,404C 179.94,404.939 182.273,407.105 183.5,410.5C 185.167,411.167 186.833,411.833 188.5,412.5C 190.046,411.316 191.713,410.316 193.5,409.5C 193.291,408.914 192.957,408.414 192.5,408C 195.232,407.587 197.899,406.92 200.5,406C 201.09,404.491 201.756,402.991 202.5,401.5C 204.163,400.125 205.497,400.458 206.5,402.5C 209.339,400.58 212.339,398.913 215.5,397.5C 216.386,396.675 216.719,395.675 216.5,394.5C 219.079,394.606 221.412,393.939 223.5,392.5 Z"/></g>
<g><path style="opacity:1" fill="#df9ca8" d="M 207.5,403.5 C 207.027,404.906 206.027,405.573 204.5,405.5C 204.973,404.094 205.973,403.427 207.5,403.5 Z"/></g>
<g><path style="opacity:1" fill="#df9eab" d="M 200.5,407.5 C 200.027,408.906 199.027,409.573 197.5,409.5C 197.973,408.094 198.973,407.427 200.5,407.5 Z"/></g>
</svg>
