<?xml version="1.0" standalone="no"?>
<!DOCTYPE svg PUBLIC "-//W3C//DTD SVG 20010904//EN"
 "http://www.w3.org/TR/2001/REC-SVG-20010904/DTD/svg10.dtd">
<svg version="1.0" xmlns="http://www.w3.org/2000/svg"
 width="360.000000pt" height="360.000000pt" viewBox="0 0 360.000000 360.000000"
 preserveAspectRatio="xMidYMid meet">

<g transform="translate(0.000000,360.000000) scale(0.100000,-0.100000)"
fill="#000000" stroke="none">
<path d="M2710 2989 c-14 -6 -34 -21 -45 -34 -19 -23 -47 -28 -475 -90 -250
-36 -568 -82 -706 -102 -247 -36 -253 -36 -304 -20 -92 30 -173 17 -245 -38
-41 -31 -83 -93 -91 -134 -5 -26 -11 -29 -56 -34 -152 -18 -293 -155 -327
-315 -14 -69 -15 -1207 -1 -1283 24 -127 109 -236 228 -292 l67 -32 1045 0
1045 0 58 23 c81 33 165 114 208 199 l34 68 0 670 0 670 -31 65 c-40 84 -111
155 -194 194 l-65 31 -757 3 c-671 2 -758 4 -758 18 0 8 -9 33 -19 54 l-19 39
32 6 c17 3 249 37 516 76 267 38 559 80 649 94 163 24 165 24 189 4 65 -51
161 11 145 94 -10 52 -73 86 -123 66z m-1540 -334 c34 -17 80 -74 80 -98 0
-15 -18 -17 -160 -17 -105 0 -160 4 -160 10 0 25 33 71 67 95 44 29 126 34
173 10z m1707 -224 c66 -29 143 -111 169 -176 18 -47 19 -82 19 -675 0 -579
-1 -629 -18 -677 -26 -74 -92 -143 -169 -178 l-63 -29 -1016 0 -1017 0 -66 33
c-77 38 -128 92 -156 169 -20 53 -20 71 -18 696 l3 641 23 42 c47 89 115 146
202 169 34 10 278 12 1050 11 l1005 -2 52 -24z"/>
<path d="M821 2272 c-70 -35 -76 -54 -76 -236 0 -180 6 -202 61 -236 31 -20
54 -20 993 -20 1062 0 1001 -4 1041 63 18 28 20 51 20 187 0 177 -10 211 -71
242 -32 17 -99 18 -984 18 -885 0 -952 -1 -984 -18z m301 -168 c2 -79 6 -99
21 -108 12 -8 22 -8 35 0 14 9 18 29 20 108 l3 96 772 0 c468 0 778 -4 787
-10 12 -7 16 -38 18 -149 3 -130 2 -141 -17 -160 -21 -21 -23 -21 -960 -21
-841 0 -941 2 -955 16 -13 13 -16 42 -16 158 0 97 4 146 12 154 8 8 55 12 145
12 l132 0 3 -96z"/>
<path d="M2473 1570 c-240 -50 -340 -348 -177 -529 152 -169 414 -139 523 59
33 60 36 71 36 150 0 73 -4 93 -28 142 -64 130 -215 207 -354 178z m162 -104
c91 -43 137 -115 138 -216 1 -129 -104 -234 -233 -232 -76 1 -133 26 -178 78
-170 192 42 479 273 370z"/>
<path d="M2475 1396 c-154 -68 -108 -296 59 -296 94 0 156 62 156 155 0 113
-112 187 -215 141z m130 -120 c20 -57 -46 -115 -99 -86 -52 27 -50 100 3 127
34 16 83 -4 96 -41z"/>
<path d="M756 1518 c-14 -19 -16 -63 -16 -280 0 -245 1 -259 20 -278 24 -24
34 -25 54 -4 24 23 24 545 0 568 -21 22 -40 20 -58 -6z"/>
<path d="M1028 1529 c-17 -9 -18 -34 -18 -289 0 -269 1 -280 20 -290 14 -8 26
-8 40 0 19 10 20 21 20 288 0 277 -3 303 -34 302 -6 0 -19 -5 -28 -11z"/>
<path d="M1290 1530 c-13 -8 -15 -51 -18 -267 -2 -142 0 -268 3 -280 8 -35 42
-49 66 -27 18 16 19 34 19 285 0 230 -2 270 -16 283 -18 18 -32 20 -54 6z"/>
<path d="M1552 1528 c-9 -9 -12 -87 -12 -290 0 -267 1 -278 20 -288 14 -8 26
-8 40 0 19 10 20 21 20 288 0 286 -2 302 -40 302 -9 0 -21 -5 -28 -12z"/>
</g>
</svg>
